<?xml version="1.0" encoding="UTF-8"?>
<svg id="Layer_2" data-name="Layer 2" xmlns="http://www.w3.org/2000/svg" viewBox="0 0 720.85 171.34">
  <defs>
    <style>
      .cls-1 {
        fill: #e4224a;
      }

      .cls-2 {
        fill: #273bfe;
      }
    </style>
  </defs>
  <g id="Layer_1-2" data-name="Layer 1">
    <g>
      <path class="cls-1" d="M0,120.26V0c8.55.36,17.1-.1,25.73,1.02l.16,59.09c22.39-14.84,50.85-14.74,72.41,1.7,19.66,14.99,29.13,41.29,20.9,67.38-6.92,21.94-27.67,40.18-52.75,41.94l.1-25.94c20.88-3.6,33.66-23.73,28.68-43.53s-25.62-31.23-45.1-24.8c-18.81,6.21-29.34,26.89-21.87,46.27l-22.69,12.74-5.58-15.61Z"/>
      <path class="cls-1" d="M720.85,49.27v25.6c-18.35.06-35.2,13.95-35.27,33.4l-.24,62.86h-25.59s.36-64.87.36-64.87c1.34-32.58,29.22-57.42,60.74-56.99Z"/>
      <path class="cls-1" d="M160.01,122.18c4.11,11.5,13.83,19.38,24.08,22.06,12.83,3.34,25.35-.47,34.28-9.76l30.77-.13c-13.09,30.26-46.98,44.26-77.07,33.29-30.52-11.13-46.92-44.3-37.51-75.32,9.47-31.21,41.57-49.19,73.36-41.39,31.3,7.68,51.51,38.81,44.99,71.28h-92.9ZM225.45,96.32c-6.02-13.49-18.92-21.54-32.96-21.3-13.54.24-26.08,8.06-31.88,21.31h64.83Z"/>
      <path class="cls-1" d="M555.75,122.06c3.63,11.54,14.01,19.79,24.02,22.34,13.08,3.34,25.48-.57,34.5-9.79h30.27c-12.79,29.87-46.95,43.98-77.09,32.7-30.28-11.33-46.59-44.56-36.75-75.67s41.38-48.35,72.88-40.63c31.06,7.61,51.42,38.54,44.99,71.02l-92.82.02ZM621.25,96.18c-6.19-14.12-19.32-21.35-32.9-21.25-13.67.1-26.46,8.09-32.03,21.42l64.94-.17Z"/>
      <path class="cls-1" d="M360.39,110.69c0-20.37-15.94-35.68-35.1-35.88-19.44-.21-35.76,15.28-35.77,35.48l-.04,60.85h-25.59s.2-62.85.2-62.85c.1-33.33,27.98-58.88,60.37-59.16s60.13,24.85,61.26,58.15l.3,63.86h-25.63s0-60.45,0-60.45Z"/>
      <path class="cls-1" d="M492.35,110.69c0-20.41-15.92-35.67-35.1-35.87-19.47-.2-35.77,15.26-35.77,35.48l-.02,60.84h-25.62s.3-63.86.3-63.86c.15-33.33,28.98-58.43,61.26-58.15s60.26,25.83,60.36,59.17l.2,62.85h-25.59s-.02-60.45-.02-60.45Z"/>
      <path class="cls-2" d="M56.21,171.13c-18.57-1.43-34.75-10.94-45.57-26.2l45.54-26.28.03,52.48Z"/>
    </g>
  </g>
</svg>