<?xml version="1.0" encoding="UTF-8"?>
<svg id="Layer_2" data-name="Layer 2" xmlns="http://www.w3.org/2000/svg" xmlns:xlink="http://www.w3.org/1999/xlink" viewBox="0 0 90.82 90.07">
  <defs>
    <style>
      .cls-1 {
        clip-path: url(#clippath-6);
      }

      .cls-2 {
        clip-path: url(#clippath-7);
      }

      .cls-3 {
        clip-path: url(#clippath-4);
      }

      .cls-4 {
        fill: url(#linear-gradient-2);
      }

      .cls-5 {
        fill: none;
      }

      .cls-6 {
        fill: url(#linear-gradient-4);
      }

      .cls-7 {
        fill: url(#linear-gradient-3);
      }

      .cls-8 {
        clip-path: url(#clippath-1);
      }

      .cls-9 {
        fill: url(#linear-gradient-5);
      }

      .cls-10 {
        clip-path: url(#clippath-5);
      }

      .cls-11 {
        fill: url(#linear-gradient-8);
      }

      .cls-12 {
        clip-path: url(#clippath-3);
      }

      .cls-13 {
        fill: url(#linear-gradient-7);
      }

      .cls-14 {
        fill: url(#linear-gradient-6);
      }

      .cls-15 {
        clip-path: url(#clippath-2);
      }

      .cls-16 {
        fill: url(#linear-gradient);
      }

      .cls-17 {
        clip-path: url(#clippath);
      }
    </style>
    <clipPath id="clippath">
      <path class="cls-5" d="M30.42,24.29l-24.38,4.26c-3.98.69-6.63,4.45-5.93,8.39.7,3.94,4.49,6.57,8.47,5.87l24.38-4.26c3.98-.69,6.63-4.45,5.93-8.39-.63-3.51-3.71-5.99-7.19-5.99-.42,0-.85.04-1.28.11"/>
    </clipPath>
    <linearGradient id="linear-gradient" x1="452.58" y1="-655.92" x2="453.1" y2="-655.92" gradientTransform="translate(7739.6088 43854.597) rotate(-155.3101) scale(55.5872 -55.7842) skewX(-.2357)" gradientUnits="userSpaceOnUse">
      <stop offset="0" stop-color="#4a7b73"/>
      <stop offset=".13" stop-color="#4a7b73"/>
      <stop offset=".42" stop-color="#00dba6"/>
      <stop offset="1" stop-color="#00dba6"/>
    </linearGradient>
    <clipPath id="clippath-1">
      <path class="cls-5" d="M28.77,5.99l-4.3,24.14c-.7,3.94-1.81,10.25-10.76,11.79.08-.01,18.93-3.23,19.94-3.51,2.64-.72,4.72-2.92,5.23-5.76l4.3-24.14c.7-3.94-1.96-7.7-5.93-8.39h0c-.43-.08-.86-.11-1.28-.11-3.48,0-6.57,2.47-7.2,5.99"/>
    </clipPath>
    <linearGradient id="linear-gradient-2" x1="450.12" y1="-698.37" x2="450.64" y2="-698.37" gradientTransform="translate(73085.676 -16681.2606) rotate(109.9004) scale(90.5985 -90.2226) skewX(.1988)" gradientUnits="userSpaceOnUse">
      <stop offset="0" stop-color="#4a7b73"/>
      <stop offset=".35" stop-color="#4a7b73"/>
      <stop offset=".75" stop-color="#27564d"/>
      <stop offset="1" stop-color="#27564d"/>
    </linearGradient>
    <clipPath id="clippath-2">
      <path class="cls-5" d="M51.92,30.16c-.7,3.94,1.95,7.7,5.93,8.39l24.38,4.26c3.98.69,7.77-1.94,8.47-5.87.7-3.94-1.96-7.7-5.93-8.39l-24.38-4.26c-.43-.07-.86-.11-1.28-.11-3.48,0-6.57,2.47-7.19,5.99"/>
    </clipPath>
    <linearGradient id="linear-gradient-3" x1="458.4" y1="-682.15" x2="458.93" y2="-682.15" gradientTransform="translate(54995.6045 33751.4851) rotate(155.2114) scale(78.3563 -78.6328) skewX(.2364)" gradientUnits="userSpaceOnUse">
      <stop offset="0" stop-color="#4a7b73"/>
      <stop offset=".38" stop-color="#4a7b73"/>
      <stop offset=".79" stop-color="#27564d"/>
      <stop offset="1" stop-color="#27564d"/>
    </linearGradient>
    <clipPath id="clippath-3">
      <path class="cls-5" d="M53.57.11h0c-3.98.7-6.63,4.45-5.93,8.39l4.3,24.14c.51,2.85,2.59,5.04,5.23,5.76,1.01.28,19.87,3.49,19.95,3.51h0c-8.96-1.53-10.07-7.85-10.77-11.79l-4.3-24.14c-.63-3.51-3.71-5.99-7.19-5.99-.42,0-.85.04-1.28.11"/>
    </clipPath>
    <linearGradient id="linear-gradient-4" x1="420.68" y1="-652.48" x2="421.2" y2="-652.48" gradientTransform="translate(-32158.8943 30117.5369) rotate(-100.0036) scale(56.9328 -56.6437) skewX(-.1062)" gradientUnits="userSpaceOnUse">
      <stop offset="0" stop-color="#4a7b73"/>
      <stop offset=".1" stop-color="#4a7b73"/>
      <stop offset=".43" stop-color="#00dba6"/>
      <stop offset="1" stop-color="#00dba6"/>
    </linearGradient>
    <clipPath id="clippath-4">
      <path class="cls-5" d="M82.23,47.26l-24.38,4.26c-3.98.69-6.63,4.45-5.93,8.39.7,3.94,4.49,6.57,8.47,5.87l24.38-4.26c3.98-.69,6.63-4.45,5.93-8.39-.63-3.51-3.71-5.99-7.2-5.99-.42,0-.85.04-1.28.11"/>
    </clipPath>
    <linearGradient id="linear-gradient-5" x1="412.94" y1="-713.97" x2="413.46" y2="-713.97" gradientTransform="translate(-4306.504 -45791.4226) rotate(24.6899) scale(55.5872 -55.7842) skewX(-.2357)" xlink:href="#linear-gradient"/>
    <clipPath id="clippath-5">
      <path class="cls-5" d="M57.16,51.66c-2.64.72-4.72,2.92-5.23,5.76l-4.3,24.14c-.7,3.94,1.95,7.7,5.93,8.39,3.98.69,7.77-1.94,8.47-5.88l4.3-24.14c.7-3.94,1.81-10.25,10.76-11.78-.43.07-18.93,3.23-19.94,3.51M77.1,48.16s0,0,0,0c0,0,0,0,0,0M77.1,48.16h0,0Z"/>
    </clipPath>
    <linearGradient id="linear-gradient-6" x1="416.44" y1="-671.19" x2="416.95" y2="-671.19" gradientTransform="translate(-69652.5713 14744.435) rotate(-70.0996) scale(90.5985 -90.2226) skewX(.1988)" xlink:href="#linear-gradient-2"/>
    <clipPath id="clippath-6">
      <path class="cls-5" d="M.11,53.14c-.7,3.94,1.95,7.7,5.93,8.39l24.38,4.26c3.98.69,7.77-1.94,8.47-5.87.7-3.94-1.96-7.7-5.93-8.39l-24.38-4.26c-.43-.08-.86-.11-1.28-.11-3.48,0-6.57,2.47-7.19,5.99"/>
    </clipPath>
    <linearGradient id="linear-gradient-7" x1="408.86" y1="-687.73" x2="409.38" y2="-687.73" gradientTransform="translate(-51562.4996 -35688.3107) rotate(-24.7886) scale(78.3563 -78.6328) skewX(.2364)" xlink:href="#linear-gradient-3"/>
    <clipPath id="clippath-7">
      <path class="cls-5" d="M24.47,59.94l4.3,24.14c.7,3.94,4.49,6.57,8.47,5.88,3.98-.7,6.63-4.45,5.93-8.39l-4.3-24.14c-.51-2.85-2.59-5.04-5.23-5.76-1-.27-19.64-3.45-19.95-3.51,8.95,1.53,10.07,7.85,10.77,11.78M13.71,48.16h0,0M13.71,48.16s0,0,0,0c0,0,0,0,0,0"/>
    </clipPath>
    <linearGradient id="linear-gradient-8" x1="445.42" y1="-716.81" x2="445.94" y2="-716.81" gradientTransform="translate(35591.9991 -32054.3625) rotate(79.9964) scale(56.9328 -56.6437) skewX(-.1062)" xlink:href="#linear-gradient-4"/>
  </defs>
  <g id="Logomarca_Plan-Assiste" data-name="Logomarca Plan-Assiste">
    <g>
      <g>
        <g class="cls-17">
          <polygon class="cls-16" points="32.65 58.56 -7.97 40.16 6.36 9.12 46.98 27.52 32.65 58.56"/>
        </g>
        <g class="cls-8">
          <polygon class="cls-4" points="57.48 4.9 40.35 51.52 .11 37.01 17.24 -9.6 57.48 4.9"/>
        </g>
      </g>
      <g>
        <g class="cls-15">
          <polygon class="cls-7" points="98.81 40.14 58.22 58.6 43.82 27.54 84.4 9.08 98.81 40.14"/>
        </g>
        <g class="cls-12">
          <polygon class="cls-6" points="47.86 47.06 39.66 1.28 76.19 -5.14 84.39 40.64 47.86 47.06"/>
        </g>
      </g>
      <g>
        <g class="cls-3">
          <polygon class="cls-9" points="58.17 32.1 98.79 50.49 84.46 81.53 43.84 63.14 58.17 32.1"/>
        </g>
        <g class="cls-10">
          <polygon class="cls-14" points="33.14 85.68 50.46 38.55 90.9 53.13 73.58 100.26 33.14 85.68"/>
        </g>
      </g>
      <g>
        <g class="cls-1">
          <polygon class="cls-13" points="-7.99 50.52 32.6 32.05 47 63.11 6.41 81.58 -7.99 50.52"/>
        </g>
        <g class="cls-2">
          <polygon class="cls-11" points="42.96 43.02 51.26 89.36 14.62 95.8 6.32 49.45 42.96 43.02"/>
        </g>
      </g>
    </g>
  </g>
</svg>